<svg xmlns="http://www.w3.org/2000/svg" width="4096" height="4096" viewBox="0 0 4096 4096"><defs><linearGradient id="g" x1="0" y1="0" x2="1" y2="1"><stop stop-color="#ffcf79"/><stop offset="1" stop-color="#ff6f7d"/></linearGradient></defs><g transform="translate(2048 2050)"><ellipse cy="1220" rx="1180" ry="260" fill="#10162c" opacity=".25"/><path d="M-980-500Q-930-1050 0-1120Q930-1050 980-500L850 850Q590 1280 0 1330Q-590 1280-850 850Z" fill="url(#g)" stroke="#592f45" stroke-width="110"/><path d="M-650-100Q0-650 650-100L430 510Q0 820-430 510Z" fill="#fff1c4" stroke="#592f45" stroke-width="88"/><g fill="#ff7f79" stroke="#592f45" stroke-width="52"><path d="M0-40L150-480Q460-310 500 60L180 120Z"/><path d="M0-40L500 120Q390 500 40 560L-140 180Z"/><path d="M0-40L-410 370Q-660 80-500-260L-120-200Z"/></g><path d="M-860-780L-1260-1180M860-780L1260-1180" stroke="#592f45" stroke-width="120" stroke-linecap="round"/><rect x="-1450" y="-1370" width="360" height="360" rx="80" fill="#ffd76d" stroke="#592f45" stroke-width="70" transform="rotate(-18 -1270 -1190)"/><rect x="1090" y="-1370" width="360" height="360" rx="80" fill="#7be7df" stroke="#592f45" stroke-width="70" transform="rotate(18 1270 -1190)"/><circle cx="-290" cy="-760" r="88" fill="#3e263c"/><circle cx="290" cy="-760" r="88" fill="#3e263c"/><path d="M-260-560Q0-350 260-560" fill="none" stroke="#3e263c" stroke-width="76" stroke-linecap="round"/></g></svg>