<svg xmlns="http://www.w3.org/2000/svg" width="2048" height="2048" viewBox="0 0 2048 2048"><defs><linearGradient id="g"><stop stop-color="#a2f1e5"/><stop offset="1" stop-color="#ff9f66"/></linearGradient></defs><g transform="translate(1024 1030)"><ellipse cy="560" rx="530" ry="120" fill="#11172d" opacity=".2"/><path d="M-430 60Q-415-370 0-440Q415-370 430 60L370 380Q280 590 0 625Q-280 590-370 380Z" fill="url(#g)" stroke="#234c55" stroke-width="46"/><rect x="-260" y="-140" width="520" height="340" rx="72" fill="#f8ffff" stroke="#234c55" stroke-width="38"/><rect x="-182" y="-72" width="255" height="192" rx="34" fill="#263e57"/><circle cx="-55" cy="24" r="68" fill="#ffcf8d" opacity=".88"/><path d="M-150 22H40M-92-42L10 86M-92 86L10-42" stroke="#ff9f66" stroke-width="24" stroke-linecap="round"/><circle cx="170" cy="-18" r="46" fill="#ff9f66" stroke="#234c55" stroke-width="19"/><circle cx="170" cy="88" r="33" fill="#ff9f66" stroke="#234c55" stroke-width="17"/><path d="M-445 275L-620 420M445 275L620 420" stroke="#234c55" stroke-width="58" stroke-linecap="round"/><path d="M-300-420Q0-575 300-420" fill="none" stroke="#e6fffb" stroke-width="52"/><circle cy="-520" r="68" fill="#fff4a6" stroke="#234c55" stroke-width="26"/><path d="M-108-560L0-700L108-560" fill="#ff9f66" stroke="#234c55" stroke-width="26"/><circle cx="-112" cy="-300" r="40" fill="#234c55"/><circle cx="112" cy="-300" r="40" fill="#234c55"/></g></svg>