<svg xmlns="http://www.w3.org/2000/svg" width="2048" height="2048" viewBox="0 0 1024 1024"><defs><radialGradient id="b"><stop stop-color="#fff4fb"/><stop offset="1" stop-color="#f2a6ca"/></radialGradient><linearGradient id="w" x1="0" y1="0" x2="1" y2="1"><stop stop-color="#ffd8ef"/><stop offset="1" stop-color="#bd83df"/></linearGradient></defs><ellipse cx="512" cy="830" rx="258" ry="65" fill="#1c1731" opacity=".22"/><path d="M415 490C305 380 180 400 170 555c-7 110 90 164 213 105zM609 490c110-110 235-90 245 65 7 110-90 164-213 105z" fill="url(#w)" stroke="#7e5c9d" stroke-width="24"/><circle cx="298" cy="540" r="38" fill="#fff0a8" opacity=".75"/><circle cx="726" cy="540" r="38" fill="#fff0a8" opacity=".75"/><path d="M450 360c-30-92-92-115-126-72M574 360c30-92 92-115 126-72" fill="none" stroke="#835f91" stroke-width="22" stroke-linecap="round"/><circle cx="324" cy="288" r="22" fill="#ffccdf"/><circle cx="700" cy="288" r="22" fill="#ffccdf"/><path d="M314 654c0-172 88-276 198-276s198 104 198 276c0 130-80 220-198 220s-198-90-198-220z" fill="url(#b)" stroke="#8c6688" stroke-width="28"/><ellipse cx="445" cy="570" rx="29" ry="36" fill="#30233a"/><ellipse cx="579" cy="570" rx="29" ry="36" fill="#30233a"/><circle cx="435" cy="558" r="9" fill="#fff"/><circle cx="569" cy="558" r="9" fill="#fff"/><path d="M462 655q50 52 100 0" fill="none" stroke="#934f78" stroke-width="20" stroke-linecap="round"/><circle cx="408" cy="635" r="31" fill="#ffb4cf" opacity=".65"/><circle cx="616" cy="635" r="31" fill="#ffb4cf" opacity=".65"/></svg>