<svg xmlns="http://www.w3.org/2000/svg" width="2048" height="2048" viewBox="0 0 2048 2048"><defs><linearGradient id="g" x1="0" y1="0" x2="1" y2="1"><stop stop-color="#6bb8ff"/><stop offset="1" stop-color="#9c7cff"/></linearGradient></defs><g transform="translate(1024 1030)"><ellipse cy="560" rx="510" ry="120" fill="#11172d" opacity=".2"/><path d="M-360 120C-410-120-230-350 0-350S410-120 360 120L300 420C260 545 130 610 0 610S-260 545-300 420Z" fill="url(#g)" stroke="#27315f" stroke-width="44"/><path d="M-420-280Q0-690 420-280Q255-330 0-230Q-255-330-420-280Z" fill="#9c7cff" stroke="#27315f" stroke-width="42"/><path d="M0-280V-520Q0-585 55-585" fill="none" stroke="#27315f" stroke-width="38" stroke-linecap="round"/><path d="M-275 340L-430 520M275 340L430 520" stroke="#27315f" stroke-width="52" stroke-linecap="round"/><circle cx="-110" cy="-80" r="38" fill="#27315f"/><circle cx="110" cy="-80" r="38" fill="#27315f"/><path d="M-85 40Q0 105 85 40" fill="none" stroke="#27315f" stroke-width="30" stroke-linecap="round"/></g></svg>