<svg xmlns="http://www.w3.org/2000/svg" width="2048" height="2048" viewBox="0 0 2048 2048"><defs><linearGradient id="body" x1="0" y1="0" x2="1" y2="1"><stop stop-color="#78e36f"/><stop offset="1" stop-color="#3eaa73"/></linearGradient><linearGradient id="glass" x1="0" y1="0" x2="0" y2="1"><stop stop-color="#bffaff"/><stop offset="1" stop-color="#67b8de"/></linearGradient></defs><g transform="translate(1024 1035)"><ellipse cx="0" cy="510" rx="560" ry="130" fill="#111827" opacity=".24"/><path d="M-480 10C-480-300-260-500 20-500C330-500 500-260 455 40L395 375C365 540 215 630-15 630C-245 630-410 525-430 355Z" fill="url(#body)" stroke="#253550" stroke-width="52"/><path d="M-285-285H230V145H-285Z" fill="url(#glass)" stroke="#253550" stroke-width="42"/><g fill="#ffdd68" stroke="#253550" stroke-width="24"><circle cx="-175" cy="-165" r="58"/><circle cx="-15" cy="-165" r="58"/><circle cx="145" cy="-165" r="58"/></g><g fill="#ff7e8d" stroke="#253550" stroke-width="24"><rect x="-232" y="-15" width="116" height="92" rx="28"/><rect x="-72" y="-15" width="116" height="92" rx="28"/><rect x="88" y="-15" width="116" height="92" rx="28"/></g><circle cx="-120" cy="265" r="40" fill="#1c2a45"/><circle cx="120" cy="265" r="40" fill="#1c2a45"/><path d="M-90 370Q10 440 110 365" fill="none" stroke="#1c2a45" stroke-width="34" stroke-linecap="round"/><path d="M318-200H430V105H318Z" fill="#ffdf70" stroke="#253550" stroke-width="34"/><circle cx="374" cy="-112" r="24" fill="#ff718e"/><path d="M-330 390L-520 555M300 395L485 565" stroke="#253550" stroke-width="60" stroke-linecap="round"/><path d="M-430-225L-610-315" stroke="#253550" stroke-width="55" stroke-linecap="round"/><path d="M-600-316q-65 65-10 135" fill="none" stroke="#8df58c" stroke-width="48" stroke-linecap="round"/></g></svg>