<svg xmlns="http://www.w3.org/2000/svg" viewBox="0 0 1024 1024">
  <defs>
    <linearGradient id="book" x1="0" y1="0" x2="1" y2="1">
      <stop offset="0" stop-color="#8de9ff"/>
      <stop offset="1" stop-color="#7657d7"/>
    </linearGradient>
    <linearGradient id="page" x1="0" y1="0" x2="0" y2="1">
      <stop offset="0" stop-color="#fff8d4"/>
      <stop offset="1" stop-color="#efcf8b"/>
    </linearGradient>
  </defs>
  <path d="M188 179c116-34 227-7 324 67 97-74 208-101 324-67 33 10 55 40 55 75v548c0 45-42 78-85 65-96-28-189-7-273 61a34 34 0 0 1-42 0c-84-68-177-89-273-61-43 13-85-20-85-65V254c0-35 22-65 55-75Z" fill="#171a37" stroke="#c7f6ff" stroke-width="42" stroke-linejoin="round"/>
  <path d="M196 247c105-24 202 4 290 74v491c-83-48-174-64-290-39V247Z" fill="url(#page)"/>
  <path d="M828 247c-105-24-202 4-290 74v491c83-48 174-64 290-39V247Z" fill="url(#page)"/>
  <path d="M512 298v527" stroke="#7256bc" stroke-width="34" stroke-linecap="round"/>
  <path d="M286 391c62-22 119-16 171 18M286 493c62-22 119-16 171 18M286 595c62-22 119-16 171 18" fill="none" stroke="#8c6f47" stroke-width="28" stroke-linecap="round" opacity=".68"/>
  <circle cx="679" cy="493" r="108" fill="url(#book)" stroke="#34275d" stroke-width="30"/>
  <path d="m679 421 21 43 48 7-35 34 8 48-42-23-43 23 8-48-35-34 48-7 22-43Z" fill="#fff2a5" stroke="#ffffff" stroke-width="14" stroke-linejoin="round"/>
  <path d="M620 678c47-16 96-16 145 0" fill="none" stroke="#7657d7" stroke-width="28" stroke-linecap="round"/>
</svg>